<svg xmlns="http://www.w3.org/2000/svg" viewBox="0 0 800 1100" role="img" aria-label="Capa da zine Lorwyn">
<rect width="800" height="1100" fill="#241811"/>
<circle cx="755.0" cy="341.4" r="1.6" fill="#FFB627" opacity="0.55"/>
<circle cx="577.3" cy="8.2" r="0.9" fill="#FFB627" opacity="0.40"/>
<circle cx="52.4" cy="225.9" r="1.8" fill="#FFB627" opacity="0.32"/>
<circle cx="456.1" cy="259.9" r="2.1" fill="#FAD6A5" opacity="0.51"/>
<circle cx="244.1" cy="47.5" r="1.8" fill="#FAD6A5" opacity="0.63"/>
<circle cx="304.7" cy="489.8" r="1.1" fill="#FAD6A5" opacity="0.61"/>
<circle cx="50.1" cy="339.3" r="2.3" fill="#FFB627" opacity="0.70"/>
<circle cx="109.0" cy="203.4" r="0.8" fill="#D9A24B" opacity="0.80"/>
<circle cx="330.7" cy="397.9" r="2.0" fill="#D9A24B" opacity="0.89"/>
<circle cx="607.1" cy="239.3" r="1.4" fill="#FAD6A5" opacity="0.90"/>
<circle cx="587.2" cy="158.7" r="0.7" fill="#FFB627" opacity="0.36"/>
<circle cx="167.2" cy="509.0" r="0.7" fill="#D9A24B" opacity="0.58"/>
<circle cx="326.4" cy="613.2" r="2.0" fill="#FAD6A5" opacity="0.88"/>
<circle cx="491.1" cy="470.3" r="1.3" fill="#D9A24B" opacity="0.77"/>
<circle cx="794.4" cy="189.3" r="0.9" fill="#D9A24B" opacity="0.82"/>
<circle cx="166.4" cy="169.6" r="1.0" fill="#FAD6A5" opacity="0.46"/>
<circle cx="600.6" cy="93.0" r="1.7" fill="#FFB627" opacity="0.55"/>
<circle cx="537.2" cy="611.8" r="2.3" fill="#FFB627" opacity="0.62"/>
<circle cx="711.3" cy="462.2" r="1.4" fill="#FFB627" opacity="0.81"/>
<circle cx="398.9" cy="98.7" r="1.1" fill="#D9A24B" opacity="0.81"/>
<circle cx="479.9" cy="338.0" r="0.8" fill="#D9A24B" opacity="0.65"/>
<circle cx="146.7" cy="103.5" r="1.3" fill="#FFB627" opacity="0.30"/>
<circle cx="315.3" cy="86.8" r="1.8" fill="#D9A24B" opacity="0.42"/>
<circle cx="118.9" cy="226.0" r="1.2" fill="#FAD6A5" opacity="0.74"/>
<circle cx="551.8" cy="145.9" r="0.7" fill="#D9A24B" opacity="0.75"/>
<circle cx="273.4" cy="504.8" r="0.7" fill="#FAD6A5" opacity="0.79"/>
<circle cx="394.0" cy="212.3" r="2.0" fill="#D9A24B" opacity="0.81"/>
<circle cx="121.1" cy="603.0" r="1.1" fill="#FFB627" opacity="0.33"/>
<circle cx="548.1" cy="173.2" r="0.9" fill="#D9A24B" opacity="0.63"/>
<circle cx="517.4" cy="563.1" r="2.1" fill="#FFB627" opacity="0.78"/>
<circle cx="233.5" cy="402.4" r="2.2" fill="#FAD6A5" opacity="0.86"/>
<circle cx="767.1" cy="361.5" r="1.6" fill="#FFB627" opacity="0.88"/>
<circle cx="383.3" cy="558.8" r="0.6" fill="#D9A24B" opacity="0.80"/>
<circle cx="654.0" cy="419.3" r="1.9" fill="#FFB627" opacity="0.43"/>
<circle cx="300.2" cy="591.6" r="1.4" fill="#FAD6A5" opacity="0.80"/>
<circle cx="536.0" cy="297.4" r="1.2" fill="#D9A24B" opacity="0.81"/>
<circle cx="322.4" cy="197.2" r="1.8" fill="#FAD6A5" opacity="0.61"/>
<circle cx="274.0" cy="94.2" r="1.5" fill="#D9A24B" opacity="0.39"/>
<circle cx="88.6" cy="676.0" r="1.9" fill="#FFB627" opacity="0.87"/>
<circle cx="573.0" cy="195.7" r="2.0" fill="#FFB627" opacity="0.47"/>
<circle cx="653.2" cy="454.8" r="1.6" fill="#D9A24B" opacity="0.52"/>
<circle cx="209.7" cy="249.1" r="0.6" fill="#D9A24B" opacity="0.66"/>
<circle cx="112.2" cy="357.3" r="1.5" fill="#D9A24B" opacity="0.33"/>
<circle cx="311.7" cy="80.8" r="0.6" fill="#FFB627" opacity="0.87"/>
<circle cx="39.0" cy="93.0" r="1.7" fill="#D9A24B" opacity="0.49"/>
<circle cx="221.8" cy="595.5" r="1.3" fill="#FFB627" opacity="0.54"/>
<circle cx="611.1" cy="158.0" r="1.8" fill="#D9A24B" opacity="0.52"/>
<circle cx="44.7" cy="595.9" r="0.6" fill="#FFB627" opacity="0.74"/>
<circle cx="125.1" cy="558.2" r="0.7" fill="#FFB627" opacity="0.34"/>
<circle cx="622.5" cy="535.5" r="0.7" fill="#FFB627" opacity="0.53"/>
<circle cx="351.8" cy="91.1" r="1.7" fill="#FFB627" opacity="0.32"/>
<circle cx="317.4" cy="106.0" r="1.3" fill="#FFB627" opacity="0.69"/>
<circle cx="375.9" cy="221.3" r="2.2" fill="#FFB627" opacity="0.76"/>
<circle cx="709.3" cy="136.8" r="2.4" fill="#FAD6A5" opacity="0.44"/>
<circle cx="94.5" cy="310.2" r="2.0" fill="#D9A24B" opacity="0.55"/>
<circle cx="420.8" cy="93.9" r="2.3" fill="#D9A24B" opacity="0.44"/>
<circle cx="315.6" cy="133.1" r="1.0" fill="#FAD6A5" opacity="0.47"/>
<circle cx="85.1" cy="568.1" r="0.7" fill="#FFB627" opacity="0.46"/>
<circle cx="502.0" cy="224.4" r="1.3" fill="#FAD6A5" opacity="0.67"/>
<circle cx="257.1" cy="75.3" r="1.0" fill="#FFB627" opacity="0.41"/>
<circle cx="349.6" cy="563.2" r="1.2" fill="#FFB627" opacity="0.33"/>
<circle cx="538.5" cy="52.6" r="1.9" fill="#FFB627" opacity="0.59"/>
<circle cx="666.7" cy="402.7" r="2.4" fill="#D9A24B" opacity="0.74"/>
<circle cx="654.4" cy="424.5" r="2.3" fill="#FAD6A5" opacity="0.51"/>
<circle cx="740.3" cy="657.5" r="0.8" fill="#FFB627" opacity="0.30"/>
<circle cx="160.8" cy="150.8" r="2.0" fill="#FAD6A5" opacity="0.42"/>
<circle cx="628.8" cy="343.6" r="1.6" fill="#D9A24B" opacity="0.56"/>
<circle cx="4.2" cy="473.3" r="1.2" fill="#D9A24B" opacity="0.45"/>
<circle cx="312.1" cy="259.3" r="2.2" fill="#FFB627" opacity="0.54"/>
<circle cx="573.5" cy="16.8" r="2.4" fill="#D9A24B" opacity="0.81"/>
<circle cx="462.3" cy="526.6" r="1.3" fill="#D9A24B" opacity="0.89"/>
<circle cx="697.9" cy="44.2" r="0.9" fill="#D9A24B" opacity="0.43"/>
<circle cx="61.7" cy="545.4" r="1.8" fill="#D9A24B" opacity="0.46"/>
<circle cx="542.1" cy="259.9" r="1.9" fill="#D9A24B" opacity="0.82"/>
<circle cx="103.2" cy="455.3" r="2.3" fill="#FFB627" opacity="0.75"/>
<circle cx="36.2" cy="647.2" r="1.2" fill="#FAD6A5" opacity="0.38"/>
<circle cx="447.7" cy="473.2" r="1.5" fill="#FFB627" opacity="0.38"/>
<circle cx="50.3" cy="192.4" r="1.8" fill="#FAD6A5" opacity="0.58"/>
<circle cx="494.3" cy="429.8" r="1.2" fill="#FFB627" opacity="0.86"/>
<circle cx="687.2" cy="180.7" r="1.7" fill="#D9A24B" opacity="0.37"/>
<circle cx="735.2" cy="14.5" r="1.8" fill="#FFB627" opacity="0.81"/>
<circle cx="110.7" cy="548.2" r="0.7" fill="#FAD6A5" opacity="0.45"/>
<circle cx="623.1" cy="120.2" r="1.3" fill="#FAD6A5" opacity="0.73"/>
<circle cx="168.4" cy="550.9" r="2.1" fill="#FAD6A5" opacity="0.79"/>
<circle cx="369.9" cy="350.7" r="0.8" fill="#D9A24B" opacity="0.35"/>
<circle cx="786.0" cy="227.1" r="1.7" fill="#D9A24B" opacity="0.50"/>
<circle cx="626.0" cy="314.1" r="1.9" fill="#D9A24B" opacity="0.77"/>
<circle cx="26.0" cy="227.5" r="2.2" fill="#D9A24B" opacity="0.32"/>
<circle cx="356.6" cy="412.0" r="2.2" fill="#FAD6A5" opacity="0.55"/>
<circle cx="296.6" cy="513.8" r="1.8" fill="#FFB627" opacity="0.32"/>
<circle cx="628" cy="210" r="86" fill="#FAD6A5" opacity="0.95"/>
<circle cx="662" cy="196" r="86" fill="#241811"/>
<circle cx="400" cy="470" r="220" fill="#D9A24B" opacity="0.05"/>
<circle cx="400" cy="470" r="190" fill="#FFB627" opacity="0.04"/>
<circle cx="400.0" cy="374.0" r="150" fill="none" stroke="#D9A24B" stroke-width="10" opacity="0.92"/>
<circle cx="483.1" cy="518.0" r="150" fill="none" stroke="#D9A24B" stroke-width="10" opacity="0.92"/>
<circle cx="316.9" cy="518.0" r="150" fill="none" stroke="#D9A24B" stroke-width="10" opacity="0.92"/>
<circle cx="400" cy="470" r="208" fill="none" stroke="#D9A24B" stroke-width="4" opacity="0.6"/>
<g transform="translate(400,250)">
<ellipse cx="-16" cy="-6" rx="20" ry="32" transform="rotate(-28 -16 -6)" fill="#FAD6A5" opacity="0.55"/>
<ellipse cx="16" cy="-6" rx="20" ry="32" transform="rotate(28 16 -6)" fill="#FAD6A5" opacity="0.55"/>
<ellipse cx="-14" cy="14" rx="15" ry="24" transform="rotate(-18 -14 14)" fill="#93A757" opacity="0.5"/>
<ellipse cx="14" cy="14" rx="15" ry="24" transform="rotate(18 14 14)" fill="#93A757" opacity="0.5"/>
<ellipse cx="0" cy="4" rx="5" ry="16" fill="#1A100B"/>
<circle cx="0" cy="-14" r="6" fill="#1A100B"/>
<circle cx="0" cy="-2" r="3" fill="#FFB627"/>
</g>
<circle cx="400.0" cy="250.0" r="2.5" fill="#FFB627" opacity="0.70"/>
<circle cx="436.6" cy="262.0" r="2.3" fill="#FFB627" opacity="0.63"/>
<circle cx="453.0" cy="274.0" r="2.1" fill="#FFB627" opacity="0.56"/>
<circle cx="447.0" cy="286.0" r="1.9" fill="#FFB627" opacity="0.49"/>
<circle cx="425.8" cy="298.0" r="1.7" fill="#FFB627" opacity="0.42"/>
<circle cx="401.5" cy="310.0" r="1.5" fill="#FFB627" opacity="0.35"/>
<circle cx="384.7" cy="322.0" r="1.3" fill="#FFB627" opacity="0.28"/>
<circle cx="380.4" cy="334.0" r="1.1" fill="#FFB627" opacity="0.21"/>
<circle cx="386.4" cy="346.0" r="0.9" fill="#FFB627" opacity="0.14"/>
<circle cx="395.5" cy="358.0" r="0.7" fill="#FFB627" opacity="0.07"/>
<polygon points="20,950 41,770 63,950" fill="#1A100B"/>
<polygon points="24,869 41,764 59,869" fill="#1A100B"/>
<polygon points="47,950 73,831 99,950" fill="#1A100B"/>
<polygon points="51,896 73,825 95,896" fill="#1A100B"/>
<polygon points="79,950 106,771 132,950" fill="#1A100B"/>
<polygon points="83,870 106,765 128,870" fill="#1A100B"/>
<polygon points="112,950 140,877 168,950" fill="#1A100B"/>
<polygon points="116,917 140,871 164,917" fill="#1A100B"/>
<polygon points="147,950 164,785 181,950" fill="#1A100B"/>
<polygon points="151,876 164,779 177,876" fill="#1A100B"/>
<polygon points="168,950 192,787 217,950" fill="#1A100B"/>
<polygon points="172,877 192,781 213,877" fill="#1A100B"/>
<polygon points="198,950 224,860 250,950" fill="#1A100B"/>
<polygon points="202,910 224,854 246,910" fill="#1A100B"/>
<polygon points="231,950 249,827 267,950" fill="#1A100B"/>
<polygon points="235,895 249,821 263,895" fill="#1A100B"/>
<polygon points="253,950 271,783 288,950" fill="#1A100B"/>
<polygon points="257,875 271,777 284,875" fill="#1A100B"/>
<polygon points="275,950 301,811 327,950" fill="#1A100B"/>
<polygon points="279,887 301,805 323,887" fill="#1A100B"/>
<polygon points="307,950 327,784 348,950" fill="#1A100B"/>
<polygon points="311,875 327,778 344,875" fill="#1A100B"/>
<polygon points="332,950 362,790 392,950" fill="#1A100B"/>
<polygon points="336,878 362,784 388,878" fill="#1A100B"/>
<polygon points="369,950 392,878 415,950" fill="#1A100B"/>
<polygon points="373,918 392,872 411,918" fill="#1A100B"/>
<polygon points="398,950 424,843 451,950" fill="#1A100B"/>
<polygon points="402,902 424,837 447,902" fill="#1A100B"/>
<polygon points="431,950 450,804 469,950" fill="#1A100B"/>
<polygon points="435,884 450,798 465,884" fill="#1A100B"/>
<polygon points="455,950 472,864 490,950" fill="#1A100B"/>
<polygon points="459,911 472,858 486,911" fill="#1A100B"/>
<polygon points="477,950 500,775 523,950" fill="#1A100B"/>
<polygon points="481,871 500,769 519,871" fill="#1A100B"/>
<polygon points="505,950 528,879 550,950" fill="#1A100B"/>
<polygon points="509,918 528,873 546,918" fill="#1A100B"/>
<polygon points="533,950 562,837 591,950" fill="#1A100B"/>
<polygon points="537,899 562,831 587,899" fill="#1A100B"/>
<polygon points="569,950 597,859 624,950" fill="#1A100B"/>
<polygon points="573,909 597,853 620,909" fill="#1A100B"/>
<polygon points="603,950 632,841 661,950" fill="#1A100B"/>
<polygon points="607,901 632,835 657,901" fill="#1A100B"/>
<polygon points="639,950 657,790 675,950" fill="#1A100B"/>
<polygon points="643,878 657,784 671,878" fill="#1A100B"/>
<polygon points="661,950 685,847 708,950" fill="#1A100B"/>
<polygon points="665,904 685,841 704,904" fill="#1A100B"/>
<polygon points="690,950 717,821 743,950" fill="#1A100B"/>
<polygon points="694,892 717,815 739,892" fill="#1A100B"/>
<polygon points="723,950 753,864 782,950" fill="#1A100B"/>
<polygon points="727,911 753,858 778,911" fill="#1A100B"/>
<polygon points="760,950 782,812 805,950" fill="#1A100B"/>
<polygon points="764,888 782,806 801,888" fill="#1A100B"/>
<polygon points="788,950 814,829 840,950" fill="#1A100B"/>
<polygon points="792,896 814,823 836,896" fill="#1A100B"/>
<rect x="0" y="950" width="800" height="150" fill="#1A100B"/>
<rect x="0" y="946" width="800" height="6" fill="#D9A24B" opacity="0.5"/>
<text x="400.0" y="1020" font-family="Georgia,'Times New Roman',serif" font-size="96" font-weight="bold" fill="#D9A24B" text-anchor="middle" letter-spacing="4">LORWYN</text>
<text x="400.0" y="1062" font-family="monospace" font-size="20" fill="#93A757" text-anchor="middle" letter-spacing="8">FADAS · CELTA · O ETERNO VERÃO</text>
<defs><filter id="g"><feTurbulence type="fractalNoise" baseFrequency="0.8" numOctaves="2" seed="7" stitchTiles="stitch"/><feColorMatrix type="saturate" values="0"/></filter></defs>
<rect width="800" height="1100" filter="url(#g)" opacity="0.07"/>
<rect x="14" y="14" width="772" height="1072" fill="none" stroke="#D9A24B" stroke-width="3" opacity="0.7"/>
<rect x="24" y="24" width="752" height="1052" fill="none" stroke="#D9A24B" stroke-width="1" opacity="0.4"/>
</svg>
